<mxfile host="app.diagrams.net" modified="2023-06-14T22:30:52.167Z" agent="Mozilla/5.0 (Windows NT 10.0; Win64; x64; rv:109.0) Gecko/20100101 Firefox/114.0" etag="Hajn-EH-O0JIN4wQYKGW" version="21.4.0" type="device">
  <diagram name="Page-1" id="58cdce13-f638-feb5-8d6f-7d28b1aa9fa0">
    <mxGraphModel dx="1195" dy="622" grid="1" gridSize="10" guides="1" tooltips="1" connect="1" arrows="1" fold="1" page="1" pageScale="1" pageWidth="1100" pageHeight="850" background="none" math="0" shadow="0">
      <root>
        <mxCell id="0" />
        <mxCell id="1" parent="0" />
        <mxCell id="MVTyi4cymcAZBlQDS7a2-5" value="shotDetected" style="edgeStyle=orthogonalEdgeStyle;rounded=0;orthogonalLoop=1;jettySize=auto;exitX=1;exitY=0;exitDx=0;exitDy=0;entryX=0;entryY=0;entryDx=0;entryDy=0;curved=1;fontSize=17;" parent="1" source="MVTyi4cymcAZBlQDS7a2-1" target="MVTyi4cymcAZBlQDS7a2-2" edge="1">
          <mxGeometry x="-0.1368" y="-16" relative="1" as="geometry">
            <Array as="points">
              <mxPoint x="134" y="288" />
            </Array>
            <mxPoint as="offset" />
          </mxGeometry>
        </mxCell>
        <mxCell id="MVTyi4cymcAZBlQDS7a2-1" value="&lt;font style=&quot;font-size: 17px;&quot;&gt;0&lt;br&gt;&lt;br&gt;Wait shot&lt;br&gt;&lt;/font&gt;" style="ellipse;whiteSpace=wrap;html=1;aspect=fixed;" parent="1" vertex="1">
          <mxGeometry x="40" y="480" width="110" height="110" as="geometry" />
        </mxCell>
        <mxCell id="xn_Yh0dq-hmXRfCCK_vc-2" style="edgeStyle=orthogonalEdgeStyle;orthogonalLoop=1;jettySize=auto;html=1;exitX=1;exitY=0;exitDx=0;exitDy=0;curved=1;entryX=0;entryY=0.333;entryDx=0;entryDy=0;entryPerimeter=0;" edge="1" parent="1" source="MVTyi4cymcAZBlQDS7a2-2" target="MVTyi4cymcAZBlQDS7a2-3">
          <mxGeometry relative="1" as="geometry">
            <mxPoint x="410" y="210" as="targetPoint" />
            <Array as="points">
              <mxPoint x="302" y="210" />
            </Array>
          </mxGeometry>
        </mxCell>
        <mxCell id="xn_Yh0dq-hmXRfCCK_vc-3" value="&lt;font style=&quot;font-size: 17px;&quot;&gt;messageReceived&lt;/font&gt;" style="edgeLabel;html=1;align=center;verticalAlign=middle;resizable=0;points=[];" vertex="1" connectable="0" parent="xn_Yh0dq-hmXRfCCK_vc-2">
          <mxGeometry x="0.1312" y="-13" relative="1" as="geometry">
            <mxPoint as="offset" />
          </mxGeometry>
        </mxCell>
        <mxCell id="MVTyi4cymcAZBlQDS7a2-2" value="&lt;font style=&quot;font-size: 17px;&quot;&gt;1&lt;br&gt;&lt;br&gt;&lt;/font&gt;&lt;div style=&quot;font-size: 17px;&quot;&gt;&lt;font style=&quot;font-size: 17px;&quot;&gt;Send shot message&lt;br&gt;&lt;/font&gt;&lt;/div&gt;&lt;div style=&quot;font-size: 17px;&quot;&gt;&lt;font style=&quot;font-size: 17px;&quot;&gt;&quot;Disparo&quot;&lt;br&gt;&lt;/font&gt;&lt;/div&gt;" style="ellipse;whiteSpace=wrap;html=1;aspect=fixed;strokeWidth=1;" parent="1" vertex="1">
          <mxGeometry x="200" y="270" width="120" height="120" as="geometry" />
        </mxCell>
        <mxCell id="MVTyi4cymcAZBlQDS7a2-13" value="&lt;font style=&quot;font-size: 17px;&quot;&gt;message == &quot;MOVE xxx&quot;&lt;/font&gt;" style="edgeStyle=orthogonalEdgeStyle;rounded=0;orthogonalLoop=1;jettySize=auto;html=1;exitX=1;exitY=0;exitDx=0;exitDy=0;entryX=0;entryY=0;entryDx=0;entryDy=0;curved=1;" parent="1" source="MVTyi4cymcAZBlQDS7a2-3" target="MVTyi4cymcAZBlQDS7a2-4" edge="1">
          <mxGeometry x="0.0854" y="-10" relative="1" as="geometry">
            <Array as="points">
              <mxPoint x="560" y="188" />
              <mxPoint x="560" y="180" />
              <mxPoint x="748" y="180" />
            </Array>
            <mxPoint as="offset" />
          </mxGeometry>
        </mxCell>
        <mxCell id="MVTyi4cymcAZBlQDS7a2-17" value="&lt;font style=&quot;font-size: 17px;&quot;&gt;message == &quot;NO&quot;&lt;/font&gt;" style="edgeStyle=orthogonalEdgeStyle;rounded=0;orthogonalLoop=1;jettySize=auto;html=1;exitX=0;exitY=1;exitDx=0;exitDy=0;entryX=0.985;entryY=0.277;entryDx=0;entryDy=0;curved=1;entryPerimeter=0;" parent="1" source="MVTyi4cymcAZBlQDS7a2-3" target="MVTyi4cymcAZBlQDS7a2-1" edge="1">
          <mxGeometry x="0.1266" y="-44" relative="1" as="geometry">
            <Array as="points">
              <mxPoint x="498" y="480" />
              <mxPoint x="148" y="480" />
            </Array>
            <mxPoint as="offset" />
          </mxGeometry>
        </mxCell>
        <mxCell id="MVTyi4cymcAZBlQDS7a2-3" value="&lt;font style=&quot;font-size: 17px;&quot;&gt;2&lt;br&gt;&lt;br&gt;Read received message&lt;br&gt;&lt;/font&gt;" style="ellipse;whiteSpace=wrap;html=1;aspect=fixed;" parent="1" vertex="1">
          <mxGeometry x="480" y="170" width="120" height="120" as="geometry" />
        </mxCell>
        <mxCell id="xn_Yh0dq-hmXRfCCK_vc-5" style="edgeStyle=orthogonalEdgeStyle;orthogonalLoop=1;jettySize=auto;html=1;exitX=0.5;exitY=1;exitDx=0;exitDy=0;entryX=0.993;entryY=0.567;entryDx=0;entryDy=0;entryPerimeter=0;curved=1;" edge="1" parent="1" source="MVTyi4cymcAZBlQDS7a2-4" target="MVTyi4cymcAZBlQDS7a2-22">
          <mxGeometry relative="1" as="geometry" />
        </mxCell>
        <mxCell id="xn_Yh0dq-hmXRfCCK_vc-6" value="&lt;font style=&quot;font-size: 17px;&quot;&gt;rotate.time &amp;gt; time&lt;/font&gt;" style="edgeLabel;html=1;align=center;verticalAlign=middle;resizable=0;points=[];" vertex="1" connectable="0" parent="xn_Yh0dq-hmXRfCCK_vc-5">
          <mxGeometry x="0.0709" y="-21" relative="1" as="geometry">
            <mxPoint as="offset" />
          </mxGeometry>
        </mxCell>
        <mxCell id="MVTyi4cymcAZBlQDS7a2-4" value="&lt;font style=&quot;font-size: 17px;&quot;&gt;3&lt;br&gt;&lt;br&gt;Roll paper&lt;br&gt;&lt;/font&gt;" style="ellipse;whiteSpace=wrap;html=1;aspect=fixed;" parent="1" vertex="1">
          <mxGeometry x="730" y="300" width="120" height="120" as="geometry" />
        </mxCell>
        <mxCell id="MVTyi4cymcAZBlQDS7a2-27" value="&lt;font style=&quot;font-size: 17px;&quot;&gt;stopRotate&amp;nbsp;&lt;/font&gt;" style="edgeStyle=orthogonalEdgeStyle;rounded=0;orthogonalLoop=1;jettySize=auto;html=1;exitX=0.5;exitY=1;exitDx=0;exitDy=0;entryX=0;entryY=1;entryDx=0;entryDy=0;curved=1;" parent="1" source="MVTyi4cymcAZBlQDS7a2-22" target="MVTyi4cymcAZBlQDS7a2-1" edge="1">
          <mxGeometry x="-0.0556" relative="1" as="geometry">
            <Array as="points">
              <mxPoint x="550" y="680" />
              <mxPoint x="56" y="680" />
            </Array>
            <mxPoint as="offset" />
          </mxGeometry>
        </mxCell>
        <mxCell id="MVTyi4cymcAZBlQDS7a2-22" value="&lt;font style=&quot;font-size: 17px;&quot;&gt;4&lt;br&gt;&lt;br&gt;Stop motor&lt;br&gt;&lt;/font&gt;" style="ellipse;whiteSpace=wrap;html=1;aspect=fixed;" parent="1" vertex="1">
          <mxGeometry x="490" y="460" width="120" height="120" as="geometry" />
        </mxCell>
        <mxCell id="SVKY76wlo63Xa0BYTwR3-4" value="&lt;font style=&quot;font-size: 17px;&quot;&gt;Start&lt;/font&gt;" style="html=1;verticalAlign=bottom;startArrow=circle;startFill=1;endArrow=open;startSize=6;endSize=8;elbow=vertical;rounded=0;entryX=0;entryY=0;entryDx=0;entryDy=0;" parent="1" target="MVTyi4cymcAZBlQDS7a2-1" edge="1">
          <mxGeometry x="0.1866" y="-2" width="80" relative="1" as="geometry">
            <mxPoint x="40" y="430" as="sourcePoint" />
            <mxPoint x="100" y="430" as="targetPoint" />
            <Array as="points">
              <mxPoint x="50" y="470" />
            </Array>
            <mxPoint as="offset" />
          </mxGeometry>
        </mxCell>
      </root>
    </mxGraphModel>
  </diagram>
</mxfile>
